<svg width="35" height="36" viewBox="0 0 35 36" fill="none" xmlns="http://www.w3.org/2000/svg">
<path d="M6.90883 25H2.86906V11.9091H7.08781C8.35769 11.9091 9.44434 12.1712 10.3477 12.6953C11.2512 13.2152 11.9436 13.9631 12.4252 14.9389C12.9067 15.9105 13.1475 17.0739 13.1475 18.429C13.1475 19.7926 12.9046 20.9666 12.4188 21.951C11.933 22.9311 11.2256 23.6854 10.2966 24.2138C9.36764 24.7379 8.23837 25 6.90883 25ZM4.45428 23.5938H6.80656C7.88894 23.5938 8.78596 23.3849 9.49761 22.9673C10.2093 22.5497 10.7398 21.9553 11.0892 21.1839C11.4387 20.4126 11.6134 19.4943 11.6134 18.429C11.6134 17.3722 11.4408 16.4624 11.0956 15.6996C10.7504 14.9325 10.2348 14.3445 9.54874 13.9354C8.86266 13.522 8.00826 13.3153 6.98553 13.3153H4.45428V23.5938ZM17.4409 7.69034V29.2188H16.1625V7.69034H17.4409ZM32.9156 18.4545C32.9156 19.9119 32.6322 21.1413 32.0654 22.1428C31.4987 23.1399 30.7338 23.8963 29.7707 24.4119C28.8076 24.9233 27.7338 25.179 26.5491 25.179C25.3559 25.179 24.2778 24.9212 23.3147 24.4055C22.3559 23.8857 21.5931 23.1271 21.0264 22.13C20.4639 21.1286 20.1826 19.9034 20.1826 18.4545C20.1826 16.9972 20.4639 15.7699 21.0264 14.7727C21.5931 13.7713 22.3559 13.0149 23.3147 12.5036C24.2778 11.9879 25.3559 11.7301 26.5491 11.7301C27.7338 11.7301 28.8076 11.9879 29.7707 12.5036C30.7338 13.0149 31.4987 13.7713 32.0654 14.7727C32.6322 15.7699 32.9156 16.9972 32.9156 18.4545ZM29.2593 18.4545C29.2593 17.6705 29.1549 17.0099 28.9461 16.473C28.7416 15.9318 28.4369 15.5227 28.032 15.2457C27.6315 14.9645 27.1372 14.8239 26.5491 14.8239C25.961 14.8239 25.4646 14.9645 25.0597 15.2457C24.6592 15.5227 24.3545 15.9318 24.1457 16.473C23.9411 17.0099 23.8389 17.6705 23.8389 18.4545C23.8389 19.2386 23.9411 19.9013 24.1457 20.4425C24.3545 20.9794 24.6592 21.3885 25.0597 21.6697C25.4646 21.9467 25.961 22.0852 26.5491 22.0852C27.1372 22.0852 27.6315 21.9467 28.032 21.6697C28.4369 21.3885 28.7416 20.9794 28.9461 20.4425C29.1549 19.9013 29.2593 19.2386 29.2593 18.4545Z" fill="white"/>
</svg>
