<svg width="118" height="22" viewBox="0 0 118 22" fill="none" xmlns="http://www.w3.org/2000/svg">
<path d="M4.94094 17.5H0.901164V4.40909H5.11991C6.3898 4.40909 7.47645 4.67116 8.37986 5.19531C9.28327 5.7152 9.97574 6.46307 10.4573 7.43892C10.9388 8.41051 11.1796 9.57386 11.1796 10.929C11.1796 12.2926 10.9367 13.4666 10.4509 14.451C9.96509 15.4311 9.2577 16.1854 8.32872 16.7138C7.39974 17.2379 6.27048 17.5 4.94094 17.5ZM2.48639 16.0938H4.83866C5.92105 16.0938 6.81807 15.8849 7.52972 15.4673C8.24136 15.0497 8.7719 14.4553 9.12133 13.6839C9.47077 12.9126 9.64548 11.9943 9.64548 10.929C9.64548 9.87216 9.4729 8.96236 9.12773 8.19957C8.78256 7.43253 8.26693 6.84446 7.58085 6.43537C6.89477 6.02202 6.04037 5.81534 5.01764 5.81534H2.48639V16.0938ZM15.0639 4.40909V17.5H13.4787V4.40909H15.0639ZM18.4193 4.40909L22.3056 15.429H22.459L26.3454 4.40909H28.0073L23.2005 17.5H21.5642L16.7573 4.40909H18.4193ZM29.6864 17.5V4.40909H37.587V5.81534H31.2716V10.2386H37.1779V11.6449H31.2716V16.0938H37.6892V17.5H29.6864ZM46.781 0.190341V21.7188H45.5026V0.190341H46.781ZM66.9582 10.9545C66.9582 12.4119 66.6748 13.6413 66.1081 14.6428C65.5413 15.6399 64.7764 16.3963 63.8133 16.9119C62.8503 17.4233 61.7764 17.679 60.5917 17.679C59.3986 17.679 58.3204 17.4212 57.3574 16.9055C56.3986 16.3857 55.6358 15.6271 55.069 14.63C54.5065 13.6286 54.2253 12.4034 54.2253 10.9545C54.2253 9.49716 54.5065 8.26989 55.069 7.27273C55.6358 6.27131 56.3986 5.51491 57.3574 5.00355C58.3204 4.48793 59.3986 4.23011 60.5917 4.23011C61.7764 4.23011 62.8503 4.48793 63.8133 5.00355C64.7764 5.51491 65.5413 6.27131 66.1081 7.27273C66.6748 8.26989 66.9582 9.49716 66.9582 10.9545ZM63.302 10.9545C63.302 10.1705 63.1976 9.50994 62.9888 8.97301C62.7842 8.43182 62.4795 8.02273 62.0747 7.74574C61.6741 7.46449 61.1798 7.32386 60.5917 7.32386C60.0037 7.32386 59.5072 7.46449 59.1024 7.74574C58.7018 8.02273 58.3971 8.43182 58.1883 8.97301C57.9838 9.50994 57.8815 10.1705 57.8815 10.9545C57.8815 11.7386 57.9838 12.4013 58.1883 12.9425C58.3971 13.4794 58.7018 13.8885 59.1024 14.1697C59.5072 14.4467 60.0037 14.5852 60.5917 14.5852C61.1798 14.5852 61.6741 14.4467 62.0747 14.1697C62.4795 13.8885 62.7842 13.4794 62.9888 12.9425C63.1976 12.4013 63.302 11.7386 63.302 10.9545ZM80.4642 9.31818H76.8591C76.8335 9.01989 76.7653 8.74929 76.6545 8.50639C76.548 8.26349 76.3988 8.05469 76.2071 7.87997C76.0196 7.70099 75.7916 7.56463 75.5231 7.47088C75.2547 7.37287 74.95 7.32386 74.6091 7.32386C74.0125 7.32386 73.5075 7.46875 73.0941 7.75852C72.6851 8.04829 72.374 8.46378 72.1609 9.00497C71.9521 9.54616 71.8477 10.196 71.8477 10.9545C71.8477 11.7557 71.9542 12.4268 72.1673 12.968C72.3846 13.505 72.6978 13.9098 73.1069 14.1825C73.516 14.451 74.0082 14.5852 74.5835 14.5852C74.9116 14.5852 75.2057 14.5447 75.4656 14.4638C75.7255 14.3786 75.9514 14.2571 76.1432 14.0994C76.3349 13.9418 76.4905 13.7521 76.6098 13.5305C76.7334 13.3047 76.8164 13.0511 76.8591 12.7699L80.4642 12.7955C80.4216 13.3494 80.266 13.9141 79.9976 14.4893C79.7291 15.0604 79.3477 15.5888 78.8534 16.0746C78.3633 16.5561 77.7561 16.9439 77.0316 17.2379C76.3072 17.532 75.4656 17.679 74.5068 17.679C73.3051 17.679 72.227 17.4212 71.2724 16.9055C70.3221 16.3899 69.57 15.6314 69.016 14.63C68.4663 13.6286 68.1914 12.4034 68.1914 10.9545C68.1914 9.49716 68.4727 8.26989 69.0352 7.27273C69.5977 6.27131 70.3562 5.51491 71.3108 5.00355C72.2653 4.48793 73.3307 4.23011 74.5068 4.23011C75.3335 4.23011 76.0941 4.34304 76.7887 4.56889C77.4834 4.79474 78.0927 5.125 78.6169 5.55966C79.141 5.99006 79.5629 6.5206 79.8825 7.15128C80.2021 7.78196 80.396 8.50426 80.4642 9.31818ZM81.7166 17.5V4.40909H91.1512V7.27273H85.2705V9.52273H90.6654V12.3864H85.2705V14.6364H91.1257V17.5H81.7166ZM95.9544 17.5H92.1192L96.4402 4.40909H101.298L105.619 17.5H101.784L98.9203 8.0142H98.818L95.9544 17.5ZM95.2385 12.3352H102.449V14.9943H95.2385V12.3352ZM117.847 4.40909V17.5H114.881L110.151 10.6222H110.074V17.5H106.52V4.40909H109.537L114.19 11.2614H114.293V4.40909H117.847Z" fill="white"/>
</svg>
